<?xml version="1.0" encoding="utf-8"?>
<!-- Generator: Adobe Illustrator 19.0.0, SVG Export Plug-In . SVG Version: 6.00 Build 0)  -->
<svg version="1.1" id="Layer_1" xmlns="http://www.w3.org/2000/svg" xmlns:xlink="http://www.w3.org/1999/xlink" x="0px" y="0px"
	 viewBox="0 0 160 160" style="enable-background:new 0 0 160 160;" xml:space="preserve">
<style type="text/css">
	.st0{fill:#FFFFFF;}
	.st1{fill:#1619FA;}
</style>
<rect id="XMLID_4_" class="st0" width="160" height="160"/>
<g id="XMLID_3_">
	
		<image style="overflow:visible;" width="152" height="152" id="XMLID_2_" xlink:href="AF9B1F14.jpg"  transform="matrix(0.6732 0 0 0.6732 30.6482 4.6667)">
	</image>
	<g id="XMLID_1_">
		<path id="XMLID_5_" class="st1" d="M20.5,141.8l1.7-20.6h4.4l2.8,7.5c0.5,1.3,0.9,2.5,1.4,3.8s0.7,2.2,0.9,2.8l0.3,0.9
			c0.6-2.1,1.5-4.6,2.6-7.5l2.9-7.5h4.4l2,20.6H40l-0.7-8.1l-0.6-7.2c-0.7,2.1-1.6,4.5-2.6,7.2l-2.9,7.7h-2.6l-2.8-7.7l-2.4-7.1
			c0,1-0.1,3.4-0.4,7.1l-0.6,8.1H20.5z"/>
		<path id="XMLID_7_" class="st1" d="M59.5,137.7v3.2c-1.1,0.7-2.6,1-4.7,1c-2.5,0-4.4-0.7-5.9-2.2c-1.4-1.5-2.1-3.4-2.1-5.7
			c0-2.5,0.7-4.4,2-5.8s3-2.1,5.1-2.1s3.6,0.6,4.8,1.8c1.2,1.2,1.8,3,1.8,5.4c0,0.6-0.1,1.3-0.2,2.2h-9.7c0.3,1.1,0.8,2,1.7,2.6
			c0.8,0.6,1.9,0.9,3.2,0.9C57,138.9,58.4,138.5,59.5,137.7z M57,132.7v-0.5c0-1-0.3-1.8-0.8-2.4c-0.5-0.6-1.2-0.9-2.2-0.9
			c-0.9,0-1.6,0.3-2.3,1c-0.6,0.6-1.1,1.6-1.2,2.8H57z"/>
		<path id="XMLID_10_" class="st1" d="M74.4,120.1H78v21.7h-3.7v-2.4c-1.1,1.8-2.6,2.6-4.7,2.6c-2,0-3.7-0.8-4.9-2.3
			c-1.2-1.6-1.8-3.4-1.8-5.6c0-2.5,0.6-4.4,1.9-5.8s2.9-2.2,4.8-2.2c2,0,3.6,0.9,4.7,2.6V120.1z M70.5,138.8c1.1,0,2-0.4,2.8-1.3
			c0.7-0.8,1.1-2.1,1.1-3.7c0-1.6-0.4-2.8-1.2-3.5c-0.8-0.8-1.7-1.2-2.7-1.2c-1.1,0-2,0.4-2.7,1.3c-0.7,0.9-1.1,2.1-1.1,3.6
			c0,1.4,0.4,2.6,1.1,3.4C68.6,138.4,69.5,138.8,70.5,138.8z"/>
		<path id="XMLID_13_" class="st1" d="M81.8,121.6c0-0.6,0.2-1.1,0.6-1.6s0.9-0.6,1.6-0.6c0.6,0,1.1,0.2,1.6,0.6s0.6,0.9,0.6,1.6
			c0,0.6-0.2,1.2-0.6,1.6s-0.9,0.6-1.6,0.6c-0.6,0-1.1-0.2-1.6-0.6S81.8,122.2,81.8,121.6z M82.2,141.8v-15.5h3.7v15.5H82.2z"/>
		<path id="XMLID_16_" class="st1" d="M92.9,134c0,1.5,0.5,2.7,1.3,3.6c0.8,0.9,2,1.3,3.4,1.3c1.3,0,2.4-0.3,3.5-1v3.2
			c-1.1,0.6-2.4,0.9-4,0.9c-2.4,0-4.3-0.8-5.8-2.3c-1.5-1.5-2.2-3.4-2.2-5.7c0-2.3,0.8-4.2,2.2-5.7c1.5-1.6,3.5-2.3,6-2.3
			c1.5,0,2.8,0.3,3.9,0.9v3.2c-1-0.7-2.2-1-3.5-1c-1.4,0-2.6,0.4-3.5,1.3S93,132.6,92.9,134z"/>
		<path id="XMLID_18_" class="st1" d="M104.8,130.4V127c1.2-0.7,2.8-1.1,5-1.1c4.2,0,6.3,2,6.3,5.9v9.9h-3.6v-1.9
			c-0.7,1.3-2.1,2-4,2c-1.5,0-2.6-0.4-3.5-1.3c-0.9-0.9-1.3-1.9-1.3-3.2c0-1.5,0.6-2.6,1.7-3.5c1.1-0.8,2.7-1.3,4.8-1.3h2.3v-1
			c0-0.9-0.2-1.5-0.7-2c-0.5-0.4-1.2-0.7-2.3-0.7C107.7,129.1,106.2,129.5,104.8,130.4z M112.3,135.1h-1.9c-1,0-1.7,0.2-2.2,0.6
			c-0.5,0.4-0.8,0.9-0.8,1.5c0,1.3,0.8,2,2.3,2c0.8,0,1.5-0.2,1.9-0.7c0.5-0.5,0.7-1.1,0.7-1.9V135.1z"/>
		<path id="XMLID_21_" class="st1" d="M123.6,126.2v2.8c0.7-1.9,2-2.9,3.9-2.9c0.4,0,0.8,0,1,0.1v3.6c-0.5-0.2-1-0.3-1.6-0.3
			c-1,0-1.8,0.4-2.5,1.2c-0.6,0.8-0.9,1.8-0.9,3.1v8h-3.7l0-15.5H123.6z"/>
		<path id="XMLID_23_" class="st1" d="M142.6,137.7v3.2c-1.1,0.7-2.6,1-4.7,1c-2.5,0-4.4-0.7-5.9-2.2c-1.4-1.5-2.1-3.4-2.1-5.7
			c0-2.5,0.7-4.4,2-5.8s3-2.1,5.1-2.1c2,0,3.6,0.6,4.8,1.8c1.2,1.2,1.8,3,1.8,5.4c0,0.6-0.1,1.3-0.2,2.2h-9.7c0.3,1.1,0.8,2,1.7,2.6
			c0.8,0.6,1.9,0.9,3.2,0.9C140.1,138.9,141.5,138.5,142.6,137.7z M140.1,132.7v-0.5c0-1-0.3-1.8-0.8-2.4c-0.5-0.6-1.2-0.9-2.2-0.9
			c-0.9,0-1.6,0.3-2.3,1s-1.1,1.6-1.2,2.8H140.1z"/>
	</g>
</g>
</svg>
